<?xml version="1.0" encoding="UTF-8" standalone="no"?>
<!-- Created with Inkscape (http://www.inkscape.org/) -->

<svg
   xmlns:dc="http://purl.org/dc/elements/1.1/"
   xmlns:cc="http://creativecommons.org/ns#"
   xmlns:rdf="http://www.w3.org/1999/02/22-rdf-syntax-ns#"
   xmlns:svg="http://www.w3.org/2000/svg"
   xmlns="http://www.w3.org/2000/svg"
   xmlns:sodipodi="http://sodipodi.sourceforge.net/DTD/sodipodi-0.dtd"
   xmlns:inkscape="http://www.inkscape.org/namespaces/inkscape"
   width="210mm"
   height="210mm"
   viewBox="0 0 210 210"
   version="1.1"
   id="svg8"
   sodipodi:docname="RhinoTools Logo.svg"
   inkscape:version="0.92pre2 15127">
  <defs
     id="defs2">
    <marker
       style="overflow:visible"
       refY="0"
       refX="0"
       orient="auto"
       id="DistanceX">
      <path
         id="path3665"
         style="stroke:#000000;stroke-width:0.5"
         d="M 3,-3 -3,3 M 0,-5 V 5"
         inkscape:connector-curvature="0" />
    </marker>
    <pattern
       y="0"
       x="0"
       width="8"
       patternUnits="userSpaceOnUse"
       id="Hatch"
       height="8">
      <path
         id="path3668"
         stroke-width="0.25"
         stroke="#000000"
         linecap="square"
         d="M8 4 l-4,4" />
      <path
         id="path3670"
         stroke-width="0.25"
         stroke="#000000"
         linecap="square"
         d="M6 2 l-4,4" />
      <path
         id="path3672"
         stroke-width="0.25"
         stroke="#000000"
         linecap="square"
         d="M4 0 l-4,4" />
    </pattern>
    <symbol
       id="*Model_Space" />
    <symbol
       id="*Paper_Space" />
    <symbol
       id="*Paper_Space0" />
  </defs>
  <sodipodi:namedview
     id="base"
     pagecolor="#ffffff"
     bordercolor="#666666"
     borderopacity="1.0"
     inkscape:pageopacity="0.0"
     inkscape:pageshadow="2"
     inkscape:zoom="0.35"
     inkscape:cx="539.21001"
     inkscape:cy="446.34033"
     inkscape:document-units="mm"
     inkscape:current-layer="layer1"
     showgrid="false"
     inkscape:window-width="1366"
     inkscape:window-height="705"
     inkscape:window-x="-8"
     inkscape:window-y="-8"
     inkscape:window-maximized="1" />
  <metadata
     id="metadata5">
    <rdf:RDF>
      <cc:Work
         rdf:about="">
        <dc:format>image/svg+xml</dc:format>
        <dc:type
           rdf:resource="http://purl.org/dc/dcmitype/StillImage" />
        <dc:title></dc:title>
      </cc:Work>
    </rdf:RDF>
  </metadata>
  <g
     inkscape:label="Layer 1"
     inkscape:groupmode="layer"
     id="layer1"
     transform="translate(0,-87)">
    <rect
       style="opacity:0.5;fill:#ccffaa;fill-opacity:1;fill-rule:evenodd;stroke:#000000;stroke-width:0.77285188"
       id="rect5365"
       width="209.22714"
       height="209.22714"
       x="0.38642594"
       y="87.386421"
       inkscape:export-xdpi="96"
       inkscape:export-ydpi="96" />
    <path
       inkscape:connector-curvature="0"
       id="path3782-9"
       style="fill:#80ffe6;fill-rule:evenodd;stroke:none;stroke-width:0.24616639"
       d="m 62.804105,116.52469 c -7.625228,1.54866 -25.734891,7.26748 -25.734891,7.26748 0,0 -2.818926,1.07246 -0.595055,3.93167 2.223471,2.8596 12.946417,13.6619 4.209653,43.84495 -7.943096,-2.70086 -25.417035,-6.03668 -27.164707,-1.27107 -1.747672,4.76603 -7.7843674,22.47885 0,22.71696 21.60421,-6.91053 46.465265,0.0789 65.449188,34.78993 1.707389,3.3358 3.911522,2.50186 3.792267,-0.89358 0.416976,-3.51468 -0.138182,-18.26357 -9.352366,-31.32279 -0.307794,-0.67764 0.02017,-1.04545 0.516494,-1.54139 2.164249,-1.61313 18.14915,-5.00372 36.020722,-17.79181 1.38025,-0.94312 7.34684,-3.77291 6.35416,-12.25184 -2.97847,-20.90966 -19.658724,-35.08766 -24.305103,-37.94728 -4.646764,-2.85921 -4.129871,2.14452 -4.050513,2.89951 -0.83435,16.16336 -5.688195,39.9125 -22.979224,56.11616 -6.171653,-1.74767 -8.356049,-6.11607 -8.356049,-6.11607 0,0 23.312408,-30.42115 17.275712,-54.72623 -1.588134,-6.83076 -3.45506,-9.25365 -11.080288,-7.7046 z m 26.886848,86.41846 c 8.101825,1.11192 12.489957,-0.15873 10.285823,2.16465 -2.203735,2.32339 -5.48033,4.40828 -1.78676,6.43351 3.693174,2.02568 10.746304,7.0298 11.151204,7.50599 0.4053,0.47661 3.68188,0.89399 4.63508,-1.48903 0.95321,-2.383 0.1188,-3.0385 -0.53623,-3.39584 -0.65547,-0.35735 0.0596,-1.4298 1.60828,-1.25092 1.54906,0.17886 5.24222,-1.25093 6.1362,-1.90642 0.89358,-0.65506 11.37803,-2.38261 13.93951,1.25134 -2.90755,0.90849 -3.75239,-0.97335 -7.86333,0.4762 -2.25368,0.87142 -7.72716,1.56477 -10.30596,7.38711 -1.92615,4.34866 -2.64126,13.32392 -10.50419,10.78258 -7.863723,-2.54213 -15.945425,-4.94449 -14.694486,-12.86744 1.250927,-7.92296 0.714697,-13.04632 -3.69357,-13.34406 -0.238099,1.25094 1.072461,8.57803 0,14.65462 -1.787158,4.5271 -2.390257,7.26787 1.128459,10.00783 3.518318,2.74075 29.809177,15.13081 45.218377,31.65192 5.8977,5.99723 8.87615,-1.44873 4.52711,-4.9042 -1.19131,-1.31095 -6.79086,-6.31427 -6.67162,-8.04222 0.11929,-1.7275 3.33582,1.60872 4.52712,2.85963 -3.21656,-6.49354 3.81281,-14.77385 11.31879,-5.42111 3.05823,2.95873 0.91332,9.94823 -1.70739,11.85465 2.8713,-2.87131 -2.12516,-10.02799 -6.11645,-6.03671 -2.06515,1.98579 3.61378,6.47341 4.88486,7.58574 1.27107,1.11156 5.79818,-2.66139 7.38673,-5.2825 1.16914,-1.6272 2.84994,-2.9982 5.2825,-13.50236 0.77433,-2.72064 1.77789,-3.70647 4.20926,-6.13782 2.43215,-2.43217 37.88764,-32.14707 41.81931,-44.65716 2.30364,-6.51331 1.1917,-8.81655 -3.69318,-4.17018 -4.88486,4.64676 -31.93071,24.90133 -42.17665,27.76056 -10.24635,2.85961 -12.03349,-2.32298 -10.54407,-3.57432 0.90567,-0.90646 23.68869,-25.53668 -1.62922,-12.27161 -9.27219,3.41518 -18.32682,-4.13067 -20.23324,-10.88207 -4.0215,-12.85736 -3.89218,-15.4092 -13.02658,-7.54546 -4.92475,4.05093 -13.661915,8.41931 -16.997733,9.6106 -10.008237,2.38302 -13.979393,13.58257 -5.877954,14.6945 z m 18.030217,11.95408 c 0.47661,0.51649 3.09812,0.7546 2.81974,-1.70779 -1.11235,-2.02566 -5.12298,-4.80549 -6.15554,-4.84539 -1.03298,-0.0395 -3.05784,0.23851 -2.1844,2.54215 3.77253,2.10464 5.044,3.49416 5.5202,4.01103 z"
       inkscape:export-xdpi="96"
       inkscape:export-ydpi="96" />
    <path
       style="opacity:0.5;fill:#80edff;fill-opacity:1;fill-rule:evenodd;stroke:none;stroke-width:0.24616638"
       d="m 66.522418,116.07508 c -1.060968,0.009 -2.288335,0.15935 -3.718076,0.4498 -2.641568,0.53651 -6.551746,1.58151 -10.521009,2.7078 l 7.933558,54.49565 c 6.289127,-9.73869 18.181264,-31.32619 13.667664,-49.49896 -1.290363,-5.55 -2.764596,-8.19024 -7.362137,-8.15429 z m 23.105701,9.10665 c -2.074767,9.8e-4 -1.746016,3.18421 -1.684016,3.77405 -0.834362,16.16337 -5.687896,39.91228 -22.978925,56.11594 -1.26181,-0.35731 -2.348853,-0.82691 -3.29272,-1.34359 l 3.578425,24.58057 c 4.803587,5.18178 9.412335,11.62333 13.717858,19.49573 1.707389,3.33581 3.911336,2.50228 3.792081,-0.89316 0.416975,-3.51468 -0.138283,-18.26381 -9.352453,-31.32303 -0.307795,-0.67764 0.02042,-1.04522 0.51673,-1.54115 2.164249,-1.61312 18.148901,-5.00371 36.020481,-17.79179 1.38024,-0.94313 7.34712,-3.77306 6.35444,-12.25199 -2.97847,-20.90965 -19.658801,-35.08747 -24.305166,-37.94709 -1.016477,-0.62545 -1.785801,-0.87477 -2.366735,-0.87449 z m 30.014161,48.99769 c -1.52738,0.0253 -3.65037,1.50982 -7.07578,4.45872 -4.92475,4.05091 -13.661899,8.41918 -16.997717,9.61049 -10.008238,2.38301 -13.979032,13.58274 -5.877606,14.69467 8.101825,1.11194 12.489633,-0.1587 10.285499,2.16469 -2.203735,2.32337 -5.479881,4.40834 -1.786323,6.43358 3.693167,2.02567 10.746097,7.02944 11.150987,7.50564 0.4053,0.4766 3.68183,0.89398 4.63504,-1.48903 0.95321,-2.38301 0.11904,-3.03834 -0.53602,-3.39569 -0.65547,-0.35735 0.0594,-1.42981 1.60807,-1.25094 1.54906,0.17888 5.24231,-1.25117 6.1363,-1.90664 0.89357,-0.65508 11.37775,-2.38235 13.93923,1.25158 -2.90756,0.90849 -3.75184,-0.97336 -7.86278,0.47618 -2.25368,0.87142 -7.72728,1.56488 -10.30609,7.38724 -1.92615,4.34864 -2.64136,13.32361 -10.5043,10.78227 -7.863722,-2.54214 -15.945598,-4.94422 -14.694671,-12.86718 1.25094,-7.92294 0.714659,-13.04627 -3.693608,-13.34399 -0.238099,1.25093 1.072462,8.5782 0,14.65478 -1.787157,4.52711 -2.390045,7.26756 1.128671,10.00751 3.222615,2.51041 25.545148,13.11972 41.116908,27.5805 l 3.15888,-6.57772 c -0.73957,-0.93804 -1.23838,-1.77053 -1.20204,-2.29725 0.0639,-0.92424 1.01699,-0.38884 2.06947,0.49098 l 16.75382,-34.89116 c -4.09234,-0.5696 -4.68916,-3.43325 -3.63248,-4.32102 0.90567,-0.90647 23.68861,-25.53703 -1.62931,-12.27195 -9.27218,3.41518 -18.32675,-4.13062 -20.23317,-10.88201 -2.51344,-8.03585 -3.40533,-12.04647 -5.95098,-12.00425 z m -15.25708,34.16467 c 1.03257,0.0398 5.04326,2.81981 6.15561,4.84546 0.27838,2.46238 -2.34315,2.22431 -2.81976,1.70781 -0.4762,-0.51688 -1.74731,-1.90622 -5.51984,-4.01085 -0.87344,-2.30364 1.15102,-2.5819 2.18399,-2.54242 z"
       id="path3782-5"
       inkscape:connector-curvature="0"
       inkscape:export-xdpi="96"
       inkscape:export-ydpi="96" />
    <g
       inkscape:label="0"
       id="g3680"
       transform="matrix(0.19768846,0,0,0.19768846,31.792225,22.687712)" />
    <path
       id="path3782"
       style="fill:#80ffe6;fill-rule:evenodd;stroke:none;stroke-width:0.19768846"
       d="m -288.99785,-27.191318 c -6.12358,1.24368 -20.66688,5.83628 -20.66688,5.83628 0,0 -2.26379,0.86126 -0.47787,3.1574 1.7856,2.29646 10.39686,10.9714503 3.38064,35.21051 -6.37885,-2.16899 -20.41162,-4.84788 -21.81512,-1.02076 -1.4035,3.82744 -6.25138,18.05206 0,18.24327 17.34966,-5.54963 37.31479,0.0634 52.56017,27.9387 1.37115,2.67888 3.14122,2.00916 3.04546,-0.71761 0.33486,-2.82253 -0.11098,-14.66689 -7.51059,-25.15434 -0.24718,-0.54419 0.0162,-0.83958 0.41478,-1.23785 1.73804,-1.29544 14.57501,-4.01833 28.9271,-14.28803 1.10843,-0.7574 5.90001,-3.02992 5.10282,-9.83908 -2.39191,-16.7918797 -15.7873,-28.17779 -19.51865,-30.47426 -3.73167,-2.29614 -3.31658,1.72219 -3.25284,2.3285 -0.67005,12.9803003 -4.56802,32.05247 -18.45389,45.06512 -4.95626,-1.4035 -6.71048,-4.91161 -6.71048,-4.91161 0,0 18.72146,-24.4302697 13.87358,-43.94892 -1.27538,-5.48557 -2.77465,-7.43132 -8.89823,-6.18732 z m 21.59197,69.39994 c 6.50632,0.89296 10.03029,-0.12747 8.26022,1.73837 -1.76975,1.86583 -4.40107,3.54014 -1.43489,5.16655 2.96587,1.62675 8.63002,5.6454 8.95518,6.02782 0.32548,0.38274 2.9568,0.71793 3.72229,-1.19579 0.76549,-1.91372 0.0954,-2.44012 -0.43063,-2.72709 -0.52639,-0.28698 0.0479,-1.14824 1.29156,-1.00459 1.244,0.14365 4.20986,-1.00458 4.92779,-1.53097 0.7176,-0.52607 9.13733,-1.9134 11.19437,1.0049 -2.33496,0.72958 -3.01342,-0.78166 -6.31479,0.38242 -1.80986,0.69981 -6.20543,1.25662 -8.27639,5.93237 -1.54683,3.49226 -2.12111,10.70001 -8.43558,8.65914 -6.31511,-2.04151 -12.80526,-3.97076 -11.80068,-10.33344 1.00459,-6.36267 0.57396,-10.47709 -2.96618,-10.71618 -0.19121,1.00458 0.86125,6.88874 0,11.76865 -1.43521,3.63558 -1.91955,5.8366 0.90622,8.03697 2.82545,2.20102 23.93881,12.15108 36.31345,25.41866 4.73626,4.81619 7.12816,-1.16343 3.63558,-3.9384 -0.9567,-1.05279 -5.45353,-5.07079 -5.35777,-6.45845 0.0958,-1.38731 2.67889,1.2919 3.63559,2.29647 -2.58312,-5.21476 3.06195,-11.86441 9.08976,-4.35351 2.45597,2.37605 0.73346,7.9891 -1.37115,9.52008 2.30585,-2.30586 -1.70665,-8.05316 -4.91193,-4.84788 -1.65845,1.59472 2.90212,5.19858 3.92288,6.09187 1.02076,0.89265 4.65634,-2.13729 5.93205,-4.24221 0.9389,-1.30676 2.2887,-2.40777 4.24221,-10.84333 0.62184,-2.18486 1.42777,-2.97654 3.38032,-4.92909 1.95319,-1.95319 30.42637,-25.8163 33.58377,-35.86276 1.84998,-5.23062 0.95702,-7.08028 -2.96587,-3.34893 -3.92288,3.73167 -25.64255,19.99748 -33.87074,22.29362 -8.22852,2.29647 -9.66372,-1.86551 -8.46761,-2.87041 0.72731,-0.72796 19.02364,-20.50771 -1.30838,-9.85494 -7.4462,2.74262 -14.71769,-3.31722 -16.24867,-8.73905 -3.22954,-10.32535 -3.12569,-12.37464 -10.46124,-6.05952 -3.95491,3.25316 -10.97145,6.76127 -13.65034,7.71797 -8.0373,1.91372 -11.2264,10.90772 -4.7204,11.80068 z m 14.4795,9.59995 c 0.38275,0.41478 2.488,0.60599 2.26444,-1.37147 -0.89329,-1.62674 -4.1141,-3.85915 -4.94332,-3.89118 -0.82955,-0.0317 -2.45565,0.19154 -1.75422,2.04152 3.0296,1.69016 4.05068,2.80604 4.4331,3.22113 z"
       inkscape:connector-curvature="0" />
    <path
       inkscape:connector-curvature="0"
       id="path3782-4"
       style="fill:#80ffe6;fill-rule:evenodd;stroke:none;stroke-width:0.19768848"
       d="m -302.65219,162.40764 c -6.12358,1.24368 -20.66688,5.83628 -20.66688,5.83628 0,0 -2.26379,0.86126 -0.47786,3.1574 1.78559,2.29646 10.39685,10.97145 3.38063,35.21051 -6.37885,-2.16898 -20.41161,-4.84787 -21.81512,-1.02076 -1.4035,3.82745 -6.25137,18.05206 0,18.24328 17.34967,-5.54963 37.3148,0.0634 52.56018,27.93869 1.37115,2.67888 3.14122,2.00917 3.04545,-0.7176 0.33486,-2.82253 -0.11097,-14.6669 -7.51058,-25.15435 -0.24719,-0.54419 0.0162,-0.83957 0.41477,-1.23784 1.73804,-1.29545 14.57501,-4.01833 28.92711,-14.28804 1.10843,-0.75739 5.90001,-3.02991 5.10282,-9.83907 -2.39191,-16.79189 -15.7873,-28.1778 -19.51866,-30.47427 -3.73167,-2.29614 -3.31657,1.72219 -3.25283,2.3285 -0.67005,12.9803 -4.56802,32.05248 -18.4539,45.06513 -4.95626,-1.4035 -6.71047,-4.91162 -6.71047,-4.91162 0,0 18.72145,-24.43027 13.87358,-43.94892 -1.27539,-5.48557 -2.77466,-7.43132 -8.89824,-6.18732 z m 21.59198,69.39995 c 6.50632,0.89295 10.03029,-0.12747 8.26022,1.73836 -1.76975,1.86584 -4.40108,3.54015 -1.43489,5.16655 2.96587,1.62676 8.63002,5.64541 8.95518,6.02782 0.32548,0.38275 2.9568,0.71794 3.72229,-1.19579 0.76549,-1.91371 0.0954,-2.44012 -0.43063,-2.72709 -0.52639,-0.28698 0.0479,-1.14823 1.29156,-1.00458 1.244,0.14364 4.20986,-1.00458 4.92779,-1.53098 0.7176,-0.52606 9.13733,-1.9134 11.19437,1.00491 -2.33496,0.72958 -3.01342,-0.78167 -6.31479,0.38242 -1.80986,0.69981 -6.20543,1.25662 -8.27639,5.93236 -1.54683,3.49227 -2.12111,10.70002 -8.43558,8.65915 -6.31511,-2.04151 -12.80526,-3.97077 -11.80068,-10.33344 1.00458,-6.36268 0.57395,-10.47709 -2.96619,-10.71619 -0.19121,1.00459 0.86126,6.88874 0,11.76866 -1.43521,3.63557 -1.91954,5.8366 0.90623,8.03697 2.82545,2.20101 23.93881,12.15108 36.31345,25.41866 4.73626,4.81619 7.12816,-1.16343 3.63558,-3.93841 -0.9567,-1.05278 -5.45353,-5.07079 -5.35777,-6.45845 0.0958,-1.3873 2.67889,1.29191 3.63559,2.29648 -2.58312,-5.21476 3.06195,-11.86441 9.08976,-4.35352 2.45597,2.37606 0.73346,7.98911 -1.37115,9.52009 2.30585,-2.30586 -1.70665,-8.05316 -4.91193,-4.84789 -1.65845,1.59473 2.90212,5.19859 3.92288,6.09187 1.02076,0.89266 4.65634,-2.13728 5.93205,-4.24221 0.9389,-1.30675 2.2887,-2.40776 4.24221,-10.84332 0.62184,-2.18486 1.42777,-2.97655 3.38032,-4.92909 1.95319,-1.9532 30.42637,-25.8163 33.58377,-35.86276 1.84998,-5.23063 0.95702,-7.08029 -2.96587,-3.34894 -3.92288,3.73167 -25.64255,19.99748 -33.87074,22.29363 -8.22852,2.29647 -9.66372,-1.86551 -8.46761,-2.87042 0.72731,-0.72795 19.02364,-20.5077 -1.30838,-9.85494 -7.4462,2.74262 -14.71769,-3.31721 -16.24867,-8.73905 -3.22954,-10.32534 -3.12569,-12.37464 -10.46124,-6.05952 -3.95491,3.25317 -10.97145,6.76128 -13.65034,7.71797 -8.0373,1.91373 -11.22641,10.90773 -4.7204,11.80069 z m 14.4795,9.59994 c 0.38275,0.41478 2.488,0.606 2.26444,-1.37147 -0.89329,-1.62674 -4.1141,-3.85914 -4.94332,-3.89118 -0.82955,-0.0317 -2.45565,0.19154 -1.75422,2.04152 3.0296,1.69017 4.05068,2.80605 4.4331,3.22113 z" />
    <path
       style="opacity:0.5;fill:#80ffe6;fill-rule:evenodd;stroke:none;stroke-width:0.24616638"
       d="m 66.521771,116.07509 c -0.775725,0.006 -1.644256,0.091 -2.611932,0.24839 l -19.880534,35.86927 c -0.17153,5.3415 -1.134349,11.73725 -3.345493,19.37604 -1.755927,-0.59707 -3.989373,-1.22158 -6.403987,-1.78632 l -11.759084,21.21706 c 17.6894,-2.2667 36.639652,5.38221 52.309101,29.81856 l 7.239868,-4.08164 c -1.088712,-6.08749 -3.532065,-13.87851 -8.661354,-21.14821 -0.307782,-0.67763 0.0198,-1.04522 0.516083,-1.54115 2.164262,-1.61312 18.149561,-5.00372 36.021111,-17.79179 1.38027,-0.94314 7.34649,-3.77306 6.35382,-12.25199 -2.97848,-20.90965 -19.658786,-35.08747 -24.305164,-37.94709 -4.646789,-2.85921 -4.129486,2.1439 -4.050128,2.89891 -0.834337,16.16336 -5.688518,39.91293 -22.979547,56.11659 -6.171653,-1.74767 -8.355676,-6.11635 -8.355676,-6.11635 0,0 23.312383,-30.42092 17.275687,-54.726 -1.29035,-5.55 -2.765243,-8.19024 -7.362771,-8.15428 z m 53.120509,58.10433 c -1.5274,0.0253 -3.65037,1.50982 -7.07579,4.45872 -4.92475,4.05091 -13.661877,8.41918 -16.99772,9.61049 -10.008237,2.38301 -13.979679,13.58274 -5.878253,14.69467 8.101812,1.11195 12.490293,-0.15871 10.286134,2.16469 -1.077019,1.1355 -2.405287,2.21358 -3.055916,3.25604 l 31.062435,-17.5125 c -1.12101,-1.50185 -1.94872,-3.1054 -2.38991,-4.66786 -2.51346,-8.03586 -3.40533,-12.04647 -5.95098,-12.00425 z m -31.579794,30.51159 c -0.158629,0.83349 0.367454,4.36772 0.420861,8.42905 l 3.837095,-2.16277 c -0.145691,-3.78385 -1.363034,-6.07077 -4.257956,-6.26628 z"
       id="path3782-2"
       inkscape:connector-curvature="0"
       inkscape:export-xdpi="96"
       inkscape:export-ydpi="96" />
    <path
       style="opacity:0.5;fill:#cd80ff;fill-opacity:1;fill-rule:evenodd;stroke:none;stroke-width:0.24616638"
       d="m 36.773984,123.94301 c -0.653232,0.36957 -2.073684,1.49991 -0.299863,3.78049 2.223472,2.85961 12.946455,13.66224 4.209691,43.84529 -7.943108,-2.70086 -25.4165,-6.03649 -27.164172,-1.27089 -0.07334,0.2 -0.163846,0.45356 -0.250962,0.69691 l 25.851457,20.94036 c 12.494625,3.12046 24.921399,12.01839 35.770822,28.97687 l 7.867274,6.3731 c 0.0025,-0.12316 0.0075,-0.24297 0.0025,-0.37387 0.416988,-3.51468 -0.13827,-18.2638 -9.35244,-31.32302 -0.307795,-0.67764 0.02042,-1.04522 0.516718,-1.54115 1.198752,-0.8935 6.647951,-2.34059 14.29893,-5.61958 L 75.369634,172.31589 c -2.832461,4.54591 -6.257213,8.86932 -10.404543,12.75585 -6.171653,-1.74767 -8.356323,-6.11636 -8.356323,-6.11636 0,0 5.42793,-7.09442 10.367858,-17.15793 z m 53.316785,66.82423 c -5.665619,4.15279 -6.787839,11.29927 -0.399617,12.17606 8.101837,1.11192 12.490278,-0.15868 10.286147,2.1647 -2.203735,2.32339 -5.480517,4.40771 -1.786959,6.43294 3.69317,2.02568 10.74609,7.03009 11.15099,7.50628 0.28376,0.33368 1.97359,0.63489 3.28951,-0.0303 l -3.10741,-3.89439 c -0.70443,0.23757 -1.55045,0.0472 -1.80176,-0.22522 -0.4762,-0.51687 -1.74795,-1.90686 -5.52048,-4.0115 -0.8046,-2.1221 0.84234,-2.52035 1.91567,-2.53985 z m -2.02827,13.92377 c -0.238112,1.25094 1.072437,8.57755 0,14.65414 -1.787158,4.5271 -2.390045,7.2682 1.128671,10.00815 3.518317,2.74075 29.80929,15.13076 45.21849,31.65186 5.89771,5.99724 8.87598,-1.44854 4.52694,-4.90401 -1.19131,-1.31095 -6.79092,-6.31436 -6.67168,-8.04231 0.11929,-1.72751 3.33627,1.60875 4.52757,2.85966 -0.4149,-0.83761 -0.65666,-1.70505 -0.75159,-2.56044 l -20.14629,-25.25044 c -1.42504,4.45561 -3.12267,9.83759 -9.44383,7.79456 -7.863724,-2.54213 -15.9456,-4.94422 -14.694673,-12.86716 1.250927,-7.92296 0.714646,-13.04626 -3.693608,-13.34401 z m 52.058121,48.7802 c 0.48809,1.06262 1.54038,2.2314 2.58037,3.23417 z"
       id="path3782-55"
       inkscape:connector-curvature="0"
       inkscape:export-xdpi="96"
       inkscape:export-ydpi="96" />
    <path
       style="opacity:0.5;fill:#80c9ff;fill-opacity:1;fill-rule:evenodd;stroke:none;stroke-width:0.24616638"
       d="m 57.549622,117.78292 c -8.569818,2.24785 -20.480259,6.00887 -20.480259,6.00887 0,0 -2.819112,1.0725 -0.595229,3.93171 2.03345,2.61523 11.17292,11.877 6.037841,36.52756 l 20.699692,4.58163 c 6.287322,-10.83435 14.307484,-28.54266 10.82153,-43.95533 z m 30.28058,13.03318 c -0.816082,11.87031 -3.819363,27.27607 -12.026135,40.80353 l 30.931793,6.84606 c 1.06152,-0.70457 2.13185,-1.43975 3.20972,-2.21102 1.38024,-0.94312 7.34712,-3.77243 6.35444,-12.25136 -1.50735,-10.58191 -6.5246,-19.43574 -11.7147,-25.97501 z m 31.812078,43.36332 c -1.52739,0.0253 -3.64973,1.50982 -7.07513,4.45873 -0.35177,0.28934 -0.72723,0.58061 -1.11453,0.87192 l 12.96563,2.86932 c -1.68672,-5.46147 -2.67678,-8.23478 -4.77597,-8.19997 z m 84.45706,8.53136 c -0.78953,-0.0677 -2.09086,0.69771 -3.92269,2.4401 -1.94659,1.85171 -7.43014,6.18814 -13.94952,10.9084 l 11.88585,2.63122 c 2.85224,-3.58142 4.95925,-6.83199 5.75665,-9.36917 1.43976,-4.07083 1.5456,-6.49768 0.22971,-6.61055 z"
       id="path3782-45"
       inkscape:connector-curvature="0"
       inkscape:export-xdpi="96"
       inkscape:export-ydpi="96" />
    <path
       style="opacity:0.5;fill:#80ffe6;fill-rule:evenodd;stroke:none;stroke-width:0.24616638"
       d="m 10.281623,181.79188 c -1.1486945,5.78556 -1.1489311,11.46282 3.235452,11.59693 21.60421,-6.91053 46.465178,0.0792 65.449089,34.79014 1.707388,3.3358 3.911323,2.50163 3.792067,-0.89381 0.416976,-3.51467 -0.138269,-18.26315 -9.35244,-31.32238 -0.307794,-0.67763 0.02042,-1.04586 0.516718,-1.5418 0.550265,-0.41013 2.001835,-0.93813 4.142773,-1.70331 z M 87.074103,194.17 c -2.783013,3.92847 -2.388165,8.46055 2.614484,9.14717 8.101825,1.11192 12.490283,-0.15868 10.286146,2.16469 -2.203734,2.32339 -5.480528,4.40836 -1.786958,6.43359 3.693175,2.02568 10.746095,7.03009 11.150995,7.50627 0.40529,0.47662 3.68247,0.894 4.63568,-1.48902 0.95321,-2.383 0.11829,-3.03899 -0.53667,-3.39633 -0.65548,-0.35735 0.06,-1.42981 1.60872,-1.25094 1.54906,0.17887 5.24165,-1.25051 6.13564,-1.906 0.89357,-0.65506 11.3784,-2.38301 13.93987,1.25093 -2.90754,0.9085 -3.75247,-0.97272 -7.86341,0.47683 -2.25368,0.87142 -7.72729,1.56424 -10.3061,7.3866 -1.92615,4.34864 -2.64136,13.32424 -10.50428,10.7829 -7.863729,-2.54214 -15.94497,-4.94486 -14.694031,-12.86781 1.250927,-7.92296 0.714647,-13.04626 -3.69362,-13.34399 -0.238099,1.25094 1.072461,8.57818 0,14.65478 -1.787158,4.5271 -2.39068,7.26819 1.128036,10.00815 3.518317,2.74075 29.809285,15.13074 45.218485,31.65184 5.89771,5.99724 8.87598,-1.44919 4.52694,-4.90465 -1.19131,-1.31094 -6.79028,-6.31437 -6.67103,-8.04231 0.1193,-1.7275 3.33562,1.60875 4.52693,2.85967 -3.21656,-6.49355 3.81297,-14.77349 11.31895,-5.42075 3.05823,2.95873 0.91288,9.94791 -1.70783,11.85432 2.8713,-2.87131 -2.12505,-10.02782 -6.11634,-6.03655 -2.06514,1.9858 3.61364,6.47374 4.88472,7.58607 1.27107,1.11156 5.79868,-2.66192 7.38722,-5.28302 1.16914,-1.6272 2.84984,-2.99814 5.28239,-13.5023 0.77433,-2.72064 1.7777,-3.70624 4.20906,-6.13759 1.44677,-1.44678 14.57802,-12.54767 25.80898,-23.93835 l -18.11931,-2.92015 c -4.66277,2.81465 -8.86387,4.98865 -11.74042,5.79138 -10.24636,2.85962 -12.03297,-2.32259 -10.54355,-3.57393 0.25634,-0.25656 2.27164,-2.43208 4.4465,-5.09255 z m 17.309167,14.54861 c 1.03257,0.0399 5.04325,2.81915 6.15559,4.84481 0.27839,2.46239 -2.34315,2.22432 -2.81976,1.70782 -0.47619,-0.51687 -1.74794,-1.90622 -5.52047,-4.01086 -0.87344,-2.30364 1.15166,-2.58125 2.18464,-2.54177 z"
       id="path3782-59"
       inkscape:connector-curvature="0"
       inkscape:export-xdpi="96"
       inkscape:export-ydpi="96" />
    <path
       style="opacity:0.5;fill:#80ffa6;fill-opacity:1;fill-rule:evenodd;stroke:none;stroke-width:0.24616638"
       d="m 66.522406,116.07574 c -1.060968,0.009 -2.288348,0.1587 -3.718077,0.44915 -7.625228,1.54866 -25.734978,7.26755 -25.734978,7.26755 0,0 -2.819112,1.0725 -0.59523,3.9317 2.223459,2.85962 12.946455,13.6616 4.209691,43.84465 -1.789561,-0.6085 -4.074061,-1.24545 -6.542331,-1.8185 l 1.792761,21.51371 c 10.293331,1.77556 20.627108,7.33948 30.15896,17.96874 9.681329,-23.1385 21.07433,-50.9416 32.135105,-78.15088 -2.650795,-2.50816 -4.92176,-4.21835 -6.233466,-5.02564 -4.646764,-2.85921 -4.130121,2.14456 -4.05075,2.89956 -0.83435,16.16337 -5.688556,39.91228 -22.979572,56.11594 -6.171654,-1.74767 -8.355676,-6.1157 -8.355676,-6.1157 0,0 23.312383,-30.42158 17.275699,-54.72665 -1.290375,-5.55 -2.764608,-8.18959 -7.362136,-8.15363 z"
       id="path3782-43"
       inkscape:connector-curvature="0"
       inkscape:export-xdpi="96"
       inkscape:export-ydpi="96" />
    <path
       style="opacity:0.5;fill:#80ffc4;fill-opacity:1;fill-rule:evenodd;stroke:none;stroke-width:0.24616638"
       d="m 66.522418,116.07509 c -1.06098,0.009 -2.288348,0.15935 -3.718076,0.4498 -7.625228,1.54866 -25.734979,7.26754 -25.734979,7.26754 0,0 -2.818464,1.0725 -0.594582,3.93171 2.223459,2.8596 12.946455,13.6616 4.209691,43.84465 -7.943096,-2.70086 -25.417135,-6.03649 -27.164819,-1.27089 -1.747672,4.76604 -7.7843675,22.47892 0,22.71703 16.746666,-5.35674 35.449206,-2.35739 51.855416,15.4276 l 12.777092,-4.48638 c -1.245224,-2.78381 -2.800135,-5.61317 -4.743792,-8.36791 -0.307795,-0.67764 0.02042,-1.04522 0.516718,-1.54115 2.164249,-1.61313 18.148913,-5.0037 36.020493,-17.79179 1.38024,-0.94312 7.34712,-3.77306 6.35444,-12.25199 -2.97847,-20.90966 -19.658801,-35.08747 -24.305166,-37.94709 -4.646777,-2.85921 -4.130122,2.14456 -4.050751,2.89956 -0.834362,16.16337 -5.687908,39.91228 -22.978925,56.11594 -6.171653,-1.74767 -8.356335,-6.11635 -8.356335,-6.11635 0,0 23.312395,-30.42092 17.275712,-54.726 -1.290363,-5.55 -2.764609,-8.19023 -7.362137,-8.15428 z m 53.119862,58.10433 c -1.52739,0.0253 -3.64973,1.50982 -7.07513,4.45872 -4.92475,4.05092 -13.661902,8.41919 -16.99772,9.61049 -7.949222,1.89275 -12.088969,9.34719 -9.396845,12.89161 L 125.9298,187.18108 c -0.12699,-0.33339 -0.24245,-0.66645 -0.3359,-0.99741 -2.51344,-8.03585 -3.40597,-12.04647 -5.95162,-12.00425 z"
       id="path3782-6"
       inkscape:connector-curvature="0"
       inkscape:export-xdpi="96"
       inkscape:export-ydpi="96" />
    <path
       style="opacity:0.5;fill:#80ffa4;fill-opacity:1;fill-rule:evenodd;stroke:none;stroke-width:0.24616636"
       d="m 127.44136,190.08578 -20.16239,19.82391 c 1.32041,0.97018 2.68303,2.2258 3.26184,3.27986 0.27838,2.46239 -2.34315,2.22431 -2.81976,1.70781 -0.34808,-0.37781 -1.13318,-1.22611 -2.99737,-2.47485 l -1.97486,1.94075 c 3.17533,2.09739 6.32519,4.3703 6.59189,4.68395 0.40529,0.47661 3.68247,0.89399 4.63568,-1.48903 0.95321,-2.38299 0.11842,-3.03834 -0.53667,-3.39567 -0.65547,-0.35737 0.06,-1.42983 1.60872,-1.25096 1.54906,0.17887 5.24167,-1.25051 6.13564,-1.906 0.89357,-0.65506 11.3784,-2.38301 13.93988,1.25094 -2.90755,0.90849 -3.75247,-0.97338 -7.86342,0.47618 -2.25368,0.87142 -7.72729,1.56489 -10.3061,7.38724 -1.92615,4.34865 -2.64135,13.32425 -10.50428,10.78291 -5.43539,-1.75712 -10.972689,-3.44909 -13.46239,-6.94195 l -4.689737,4.61059 c 0.262182,0.26156 0.558583,0.52182 0.892514,0.78184 3.518318,2.74075 29.809283,15.13074 45.218503,31.65185 5.89769,5.99723 8.87597,-1.44854 4.52692,-4.90402 -1.1913,-1.31094 -6.79091,-6.31435 -6.67167,-8.0423 0.11929,-1.7275 3.33627,1.60874 4.52757,2.85966 -3.21656,-6.49355 3.81298,-14.77347 11.31895,-5.42074 3.05823,2.95873 0.91289,9.94791 -1.70783,11.85432 2.87132,-2.87131 -2.12504,-10.02782 -6.11634,-6.03654 -2.06514,1.98579 3.61364,6.47308 4.88472,7.58542 1.27107,1.11156 5.79868,-2.66127 7.38723,-5.28238 0.43733,-0.60869 0.94616,-1.18195 1.53922,-2.21039 -0.32911,-11.56098 -0.75933,-24.87173 -1.18788,-37.65494 -5.72757,0.13228 -6.65135,-3.40982 -5.4542,-4.4156 0.2824,-0.28264 2.69174,-2.87306 5.10672,-5.90078 -0.11556,-3.37314 -0.21566,-6.24872 -0.32367,-9.34537 -1.67158,0.6291 -3.77825,1.59409 -6.41236,2.97419 -7.48747,2.75784 -14.83085,-1.63275 -18.38507,-6.9799 z"
       id="path3782-3"
       inkscape:connector-curvature="0"
       inkscape:export-xdpi="96"
       inkscape:export-ydpi="96" />
    <path
       style="opacity:0.5;fill:#80fff1;fill-opacity:1;fill-rule:evenodd;stroke:none;stroke-width:0.24616638"
       d="m 194.72374,189.67974 c -9.79368,7.67394 -28.56684,20.95555 -36.72381,23.23181 -10.24635,2.85962 -12.03361,-2.32259 -10.54419,-3.57392 0.90567,-0.90647 23.68862,-25.53702 -1.62931,-12.27195 -5.15022,1.89696 -10.23127,0.40996 -14.05955,-2.44203 l -5.27595,15.44112 c 3.31786,-0.19171 7.20532,0.16624 8.63303,2.19172 -2.90755,0.90849 -3.75247,-0.97338 -7.86342,0.47618 -0.49162,0.19009 -1.15403,0.37985 -1.88863,0.6081 l -10.72114,31.37901 c 6.94191,4.68645 14.08726,10.20444 19.75891,16.28537 5.89771,5.99723 8.87598,-1.44854 4.52694,-4.90402 -1.19131,-1.31094 -6.79092,-6.31435 -6.67167,-8.0423 0.11929,-1.7275 3.33562,1.60874 4.52692,2.85966 -3.21656,-6.49355 3.81298,-14.77347 11.31895,-5.42074 3.05823,2.95873 0.91353,9.94791 -1.70718,11.85432 2.8713,-2.87131 -2.12569,-10.02783 -6.11699,-6.03654 -2.06514,1.98578 3.61428,6.47308 4.88535,7.58542 1.27108,1.11156 5.79805,-2.66128 7.3866,-5.28239 1.16914,-1.62719 2.84983,-2.99813 5.28239,-13.50229 0.77433,-2.72064 1.77769,-3.70623 4.20905,-6.13758 1.90503,-1.90505 24.06785,-20.54679 35.47544,-34.55012 z"
       id="path3782-62"
       inkscape:connector-curvature="0"
       inkscape:export-xdpi="96"
       inkscape:export-ydpi="96" />
  </g>
</svg>
